# xmcd
#
# Track frame offsets:
#	150
#	20741
#	40298
#	55575
#	73234
#	99838
#	115108
#	131533
#	146697
#	165382
#	183014
#	199446
#
# Disc length: 2861 seconds
#
# Revision: 1
# Processed by: cddbd v1.5.2PL0 Copyright (c) Steve Scherf et al.
# Submitted via: audiograbber 1.83.01
#
DISCID=a40b2b0c
DTITLE=Rod Dowsett - Rhyme or Reason
DYEAR=2007
DGENRE=Country
TTITLE0=Fly away
TTITLE1=Rhyme or reason
TTITLE2=Country living
TTITLE3=Tobacco May
TTITLE4=Thank you
TTITLE5=Valentine's day
TTITLE6=It's my shout
TTITLE7=12 Foot tinny
TTITLE8=Shot gun wedding
TTITLE9=Bread crumbs
TTITLE10=Pretty and small
TTITLE11=Where roses thrive
EXTD=
EXTT0=
EXTT1=
EXTT2=
EXTT3=
EXTT4=
EXTT5=
EXTT6=
EXTT7=
EXTT8=
EXTT9=
EXTT10=
EXTT11=
PLAYORDER=
